<svg width="60" height="56" viewBox="0 0 60 56" fill="none" xmlns="http://www.w3.org/2000/svg">
<path d="M27.3805 10.2968C27.0321 9.85571 18.775 -0.494479 12.2565 0.404981C9.94522 0.724095 8.16521 2.34855 6.96612 5.23313C5.31185 9.21267 5.17437 12.4475 6.55755 14.8475C8.27956 17.8356 11.6928 18.3176 11.8372 18.3368C11.8754 18.3418 11.9139 18.3443 11.9524 18.3443H26.6893C27.1756 18.3443 27.5699 17.95 27.5699 17.4637V10.8425C27.57 10.6446 27.5032 10.4523 27.3805 10.2968Z" fill="#FF3D43"/>
<path d="M53.0338 5.23316C51.8347 2.34857 50.0548 0.724121 47.7435 0.405007C41.2264 -0.494688 32.9678 9.85585 32.6195 10.2968C32.4969 10.4523 32.4301 10.6446 32.4301 10.8425V17.4638C32.4301 17.9501 32.8243 18.3443 33.3106 18.3443H48.0475C48.086 18.3443 48.1245 18.3418 48.1627 18.3368C48.3071 18.3177 51.7204 17.8356 53.4424 14.8476C54.8257 12.4474 54.6882 9.21269 53.0338 5.23316Z" fill="#FF3D43"/>
<path d="M26.6895 14.2939H11.9526C11.9141 14.2939 11.8756 14.2914 11.8374 14.2864C11.693 14.2672 8.27971 13.7853 6.55769 10.7971C6.22567 10.221 5.98228 9.59628 5.82542 8.92529C5.38784 11.256 5.63088 13.2396 6.55769 14.8477C8.27971 17.8357 11.693 18.3178 11.8374 18.3369C11.8756 18.342 11.9141 18.3444 11.9526 18.3444H26.6895C27.1758 18.3444 27.57 17.9502 27.57 17.4639V13.4133C27.57 13.8996 27.1758 14.2939 26.6895 14.2939Z" fill="#D62D2D"/>
<path d="M53.4424 10.7971C51.7204 13.7851 48.3071 14.2672 48.1627 14.2864C48.1245 14.2914 48.086 14.2939 48.0475 14.2939H33.3106C32.8243 14.2939 32.4301 13.8996 32.4301 13.4133V17.4639C32.4301 17.9502 32.8243 18.3444 33.3106 18.3444H48.0475C48.086 18.3444 48.1245 18.342 48.1627 18.3369C48.3071 18.3178 51.7204 17.8357 53.4424 14.8477C54.3692 13.2394 54.6122 11.256 54.1747 8.92529C54.0179 9.59628 53.7744 10.221 53.4424 10.7971Z" fill="#D62D2D"/>
<path d="M33.3105 9.96191H26.6893C26.203 9.96191 25.8088 10.3562 25.8088 10.8425V17.4637C25.8088 17.95 26.203 18.3442 26.6893 18.3442H33.3105C33.7968 18.3442 34.1911 17.95 34.1911 17.4637V10.8425C34.1911 10.3562 33.7968 9.96191 33.3105 9.96191Z" fill="#D62D2D"/>
<path d="M25.8089 14.2939V17.464C25.8089 17.9503 26.2032 18.3445 26.6895 18.3445H33.3107C33.797 18.3445 34.1912 17.9503 34.1912 17.464V14.2939H25.8089Z" fill="#9E1219"/>
<path d="M54.6709 25.2812H5.32914C4.84283 25.2812 4.44858 25.6755 4.44858 26.1618V51.8234C4.44858 53.9334 6.1652 55.65 8.27525 55.65H51.7248C53.8348 55.65 55.5514 53.9334 55.5514 51.8234V26.1618C55.5514 25.6754 55.1572 25.2812 54.6709 25.2812Z" fill="#FFB75E"/>
<path d="M54.6709 25.2812H5.32914C4.84283 25.2812 4.44858 25.6755 4.44858 26.1618V29.9452H55.5514V26.1618C55.5514 25.6754 55.1572 25.2812 54.6709 25.2812Z" fill="#FF930D"/>
<path d="M59.1194 16.583H0.880557C0.394255 16.583 0 16.9773 0 17.4636V26.1616C0 26.6479 0.394255 27.0422 0.880557 27.0422H59.1194C59.6057 27.0422 60 26.6479 60 26.1616V17.4636C60 16.9773 59.6057 16.583 59.1194 16.583Z" fill="#FFB75E"/>
<path d="M0 22.9917V26.1617C0 26.648 0.394255 27.0423 0.880557 27.0423H59.1194C59.6057 27.0423 60 26.648 60 26.1617V22.9917H0Z" fill="#FFA331"/>
<path d="M34.3538 16.583H25.6461C25.1598 16.583 24.7655 16.9773 24.7655 17.4636V54.7692C24.7655 55.2556 25.1598 55.6498 25.6461 55.6498H34.3538C34.8401 55.6498 35.2344 55.2556 35.2344 54.7692V17.4636C35.2344 16.9773 34.8402 16.583 34.3538 16.583Z" fill="#FF3D43"/>
<path d="M34.3538 16.583H31.1838V55.6498H34.3538C34.8401 55.6498 35.2344 55.2556 35.2344 54.7692V17.4636C35.2344 16.9773 34.8402 16.583 34.3538 16.583Z" fill="#D62D2D"/>
</svg>
